<svg xmlns="http://www.w3.org/2000/svg" width="720" height="176" viewBox="0 0 720 176" font-family="JetBrains Mono, SFMono-Regular, Menlo, Consolas, Liberation Mono, monospace">
  <rect width="720" height="176" rx="24" fill="#0d1117"/>
  <g transform="translate(24 24) scale(0.5)">
    <rect width="256" height="256" rx="48" fill="#0d1117"/>
    <rect x="8" y="8" width="240" height="240" rx="42" fill="none" stroke="#30363d" stroke-width="2"/>
    <g fill="#8b949e">
      <rect x="86" y="48" width="12" height="18" rx="2"/><rect x="110" y="48" width="12" height="18" rx="2"/><rect x="134" y="48" width="12" height="18" rx="2"/><rect x="158" y="48" width="12" height="18" rx="2"/>
      <rect x="86" y="190" width="12" height="18" rx="2"/><rect x="110" y="190" width="12" height="18" rx="2"/><rect x="134" y="190" width="12" height="18" rx="2"/><rect x="158" y="190" width="12" height="18" rx="2"/>
      <rect x="48" y="86" width="18" height="12" rx="2"/><rect x="48" y="110" width="18" height="12" rx="2"/><rect x="48" y="134" width="18" height="12" rx="2"/><rect x="48" y="158" width="18" height="12" rx="2"/>
      <rect x="190" y="86" width="18" height="12" rx="2"/><rect x="190" y="110" width="18" height="12" rx="2"/><rect x="190" y="134" width="18" height="12" rx="2"/><rect x="190" y="158" width="18" height="12" rx="2"/>
    </g>
    <rect x="64" y="64" width="128" height="128" rx="16" fill="#161b22" stroke="#58a6ff" stroke-width="4"/>
    <rect x="84" y="140" width="18" height="28" rx="3" fill="#3fb950"/>
    <rect x="110" y="120" width="18" height="48" rx="3" fill="#3fb950"/>
    <rect x="136" y="100" width="18" height="68" rx="3" fill="#d29922"/>
    <rect x="162" y="84" width="18" height="84" rx="3" fill="#ff7b72"/>
  </g>
  <text x="176" y="92" font-size="64" font-weight="bold" fill="#c9d1d9">accel</text>
  <text x="178" y="130" font-size="20" fill="#8b949e">one terminal for every AI accelerator</text>
</svg>
